<svg xmlns="http://www.w3.org/2000/svg" width="24" height="24" viewBox="0 0 24 24"><path d="M16 13a1 1 0 0 0 .87-.51l3.89-7c.37-.67-.11-1.49-.87-1.49H6.83l9 9H16zm5.19 8.19L2.81 2.81a.996.996 0 0 0-1.41 0C1 3.2 1 3.83 1.39 4.22l3.7 3.7l1.8 4.05l-1.07 2.13c-.31.62-.28 1.35.09 1.95s1 .95 1.7.95h6.55l1.51 1.51c-.4.36-.67.89-.67 1.49c0 1.1.9 2 2 2c.6 0 1.13-.27 1.49-.68l1.29 1.29c.39.39 1.02.39 1.41 0c.39-.39.39-1.03 0-1.42zM7.62 15l1-2h1.55l2 2H7.62zM7 18c-1.1 0-2 .9-2 2s.9 2 2 2s2-.9 2-2s-.9-2-2-2z"/></svg>