<svg xmlns="http://www.w3.org/2000/svg" width="24" height="24" viewBox="0 0 24 24"><path d="M18.75 14.25c-.41.41-.41 1.09 0 1.5L21 18l-2.25 2.25c-.41.41-.41 1.09 0 1.5c.41.41 1.09.41 1.5 0l3.04-3.04a.996.996 0 0 0 0-1.41l-3.04-3.04a1.06 1.06 0 0 0-1.5-.01z"/><path d="M16 17H4V5h16v6c0 .55.45 1 1 1s1-.45 1-1V5c0-1.1-.9-2-2-2H4c-1.1 0-2 .9-2 2v12c0 1.1.9 2 2 2h4v1c0 .55.45 1 1 1h5c.55 0 1-.45 1-1v-1h1c.55 0 1-.45 1-1s-.45-1-1-1z"/><path d="M13 14v-2h2c.55 0 1-.45 1-1s-.45-1-1-1h-2V8c0-.55-.45-1-1-1s-1 .45-1 1v2H9c-.55 0-1 .45-1 1s.45 1 1 1h2v2c0 .55.45 1 1 1s1-.45 1-1z"/></svg>