<svg xmlns="http://www.w3.org/2000/svg" width="24" height="24" viewBox="0 0 24 24"><path d="M19 3H5c-1.1 0-2 .9-2 2v14a2 2 0 0 0 2 2h14c1.1 0 2-.9 2-2V5a2 2 0 0 0-2-2zm-7 9.76c0 .41-.34.75-.75.75H11v.74c0 .41-.34.75-.75.75s-.75-.34-.75-.75v-.75h-2c-.55 0-1-.45-1-1V9.75c0-.41.34-.75.75-.75s.75.34.75.75V12h1.5V9.75c0-.41.34-.75.75-.75s.75.34.75.75V12h.25c.41 0 .75.34.75.75v.01zm5.16 1.12c.34.46.01 1.12-.57 1.12c-.22 0-.42-.1-.55-.27l-1.54-1.98v1.5c0 .41-.34.75-.75.75s-.75-.34-.75-.75v-4.5c0-.41.34-.75.75-.75s.75.34.75.75v1.5l1.54-1.98a.698.698 0 0 1 1.11.85L15.75 12l1.41 1.88z"/></svg>