<svg xmlns="http://www.w3.org/2000/svg" width="24" height="24" viewBox="0 0 24 24"><path d="M20.49 21.9a.996.996 0 0 0 0-1.41l-6.21-6.21L13 13l-2-2l-1.5-1.5l-5.98-5.98a.996.996 0 0 0-1.41 0c-.39.39-.39 1.03 0 1.42l4.4 4.4V11h-2V9.75A.77.77 0 0 0 3.75 9c-.41 0-.75.34-.75.75v4.5c0 .41.34.75.75.75s.75-.34.75-.75V12.5h2v1.75c0 .41.34.75.75.75s.75-.34.75-.75v-3.42l1.5 1.5v1.92c0 .41.34.75.75.75h1.92l6.9 6.9c.39.39 1.03.39 1.42 0zM14.5 10.5c0-.8-.7-1.5-1.5-1.5h-1.17l2.67 2.67V10.5zm6.5 1v-1c0-.83-.67-1.5-1.5-1.5h-2.75c-.41 0-.75.34-.75.75v3.42l1.41 1.41c.05-.1.09-.21.09-.33V13h1.1l.72 1.59a.693.693 0 0 0 1.27-.55l-.49-1.14c.5-.3.9-.8.9-1.4zm-1.5 0h-2v-1h2v1z"/></svg>