<svg xmlns="http://www.w3.org/2000/svg" width="24" height="24" viewBox="0 0 24 24"><path d="M5 20c0 .55.45 1 1 1h12c.55 0 1-.45 1-1s-.45-1-1-1h-5v-2h4c.55 0 1-.45 1-1s-.45-1-1-1h-6.88c-1.44 0-2.76-.96-3.05-2.37c-.28-1.35.36-2.58 1.39-3.19C8.17 9.03 8 8.54 8 8c0-.21.04-.42.09-.62A5.01 5.01 0 0 0 5 12c0 2.76 2.24 5 5 5v2H6c-.55 0-1 .45-1 1zm5.56-14.49C11.91 5.54 13 6.64 13 8c0 .75-.33 1.41-.85 1.87l.25.68c.19.52.76.79 1.28.6c.19.52.76.79 1.28.6c.52-.19.79-.76.6-1.28c.52-.19.79-.76.6-1.28L14.1 3.54a.998.998 0 0 0-1.28-.6a.998.998 0 0 0-1.28-.6c-.52.19-.79.76-.6 1.28c-.52.19-.79.76-.6 1.28l.22.61z"/><circle cx="10.5" cy="8" r="1.5"/></svg>