<svg xmlns="http://www.w3.org/2000/svg" width="24" height="24" viewBox="0 0 24 24"><path d="M22.42 11.34l-1.86-2.13l.26-2.82c.05-.5-.29-.96-.77-1.07l-2.76-.62l-1.44-2.44c-.26-.43-.79-.61-1.26-.41L12 2.96L9.41 1.85c-.46-.2-1-.02-1.25.41L6.71 4.69l-2.75.62c-.49.11-.83.56-.78 1.06l.26 2.83l-1.87 2.14c-.33.38-.33.94 0 1.32l1.87 2.13l-.26 2.83c-.05.5.29.96.77 1.07l2.76.63l1.44 2.43c.26.43.8.61 1.26.41L12 21.03l2.59 1.11c.46.2 1 .02 1.25-.41l1.44-2.43l2.76-.63c.49-.11.82-.57.77-1.07l-.26-2.82l1.86-2.13a.98.98 0 0 0 .01-1.31zm-12.19 3.49l-2.12-2.12a.996.996 0 1 1 1.41-1.41l1.41 1.41l3.54-3.54a.996.996 0 1 1 1.41 1.41l-4.24 4.24c-.38.4-1.02.4-1.41.01z"/></svg>