<svg xmlns="http://www.w3.org/2000/svg" width="24" height="24" viewBox="0 0 24 24"><path d="M2 17.56v1.94c0 .28.22.5.5.5h1.94c.32 0 .56-.29.5-.6a2.995 2.995 0 0 0-2.34-2.34c-.31-.06-.6.18-.6.5zm1.14-4.47c-.6-.1-1.14.39-1.14 1c0 .49.36.9.85.98c2.08.36 3.72 2 4.08 4.08c.08.49.49.85.98.85c.61 0 1.09-.54 1-1.14a6.997 6.997 0 0 0-5.77-5.77zM3.1 9.05c-.59-.05-1.1.41-1.1 1c0 .51.38.94.88.99c4.27.41 7.67 3.81 8.08 8.08c.05.5.48.87.99.87c.6 0 1.06-.52 1-1.11c-.53-5.19-4.66-9.31-9.85-9.83zM20 4H4c-1.1 0-2 .9-2 2c0 .55.45 1 1 1s1-.45 1-1h16v12h-4c-.55 0-1 .45-1 1s.45 1 1 1h4c1.1 0 2-.9 2-2V6c0-1.1-.9-2-2-2zm-2 11V9c0-.55-.45-1-1-1H7c3.48 1.45 6.19 4.38 7.37 8H17c.55 0 1-.45 1-1z"/></svg>