<svg xmlns="http://www.w3.org/2000/svg" width="24" height="24" viewBox="0 0 24 24"><path d="M6 8c1.1 0 2-.9 2-2s-.9-2-2-2s-2 .9-2 2s.9 2 2 2zm6 12c1.1 0 2-.9 2-2s-.9-2-2-2s-2 .9-2 2s.9 2 2 2zm-6 0c1.1 0 2-.9 2-2s-.9-2-2-2s-2 .9-2 2s.9 2 2 2zm0-6c1.1 0 2-.9 2-2s-.9-2-2-2s-2 .9-2 2s.9 2 2 2zm6 0c1.1 0 2-.9 2-2s-.9-2-2-2s-2 .9-2 2s.9 2 2 2zm4-8c0 1.1.9 2 2 2s2-.9 2-2s-.9-2-2-2s-2 .9-2 2zm-4 2c1.1 0 2-.9 2-2s-.9-2-2-2s-2 .9-2 2s.9 2 2 2zm6 6c1.1 0 2-.9 2-2s-.9-2-2-2s-2 .9-2 2s.9 2 2 2zm0 6c1.1 0 2-.9 2-2s-.9-2-2-2s-2 .9-2 2s.9 2 2 2z"/></svg>