<svg xmlns="http://www.w3.org/2000/svg" width="24" height="24" viewBox="0 0 24 24"><path d="M11.65 4.58c-.39-.38-.9-.58-1.42-.58c-.51 0-1.02.2-1.41.59L4.59 8.82c-.78.78-.78 2.04 0 2.82l7.77 7.77c.39.39.9.59 1.41.59s1.02-.2 1.41-.59l4.24-4.24c.78-.78.78-2.04 0-2.82l-7.77-7.77zM13.77 18L6 10.24L10.23 6L18 13.76L13.77 18zM13.04.05C12.7.02 12.35 0 12 0c-.6 0-1.2.05-1.77.14a.5.5 0 0 0-.28.85l3.2 3.16c.31.32.85.1.85-.35V2.2c4.28.87 7.57 4.48 7.96 8.92c.04.5.48.88.99.88c.6 0 1.05-.52 1-1.12C23.42 5.12 18.81.55 13.04.05zM10 21.8c-4.28-.87-7.57-4.48-7.96-8.92a.988.988 0 0 0-.99-.88c-.6 0-1.05.52-1 1.12c.53 5.76 5.14 10.34 10.91 10.83c.34.03.69.05 1.04.05c.59 0 1.16-.05 1.72-.13c.41-.06.59-.56.29-.85l-3.16-3.16a.495.495 0 0 0-.85.35v1.59z"/></svg>