<svg xmlns="http://www.w3.org/2000/svg" width="24" height="24" viewBox="0 0 24 24"><path d="M14 1h-4c-.55 0-1 .45-1 1s.45 1 1 1h4c.55 0 1-.45 1-1s-.45-1-1-1zm5.03 6.39l.75-.75a.993.993 0 0 0 0-1.4l-.01-.01a.993.993 0 0 0-1.4 0l-.75.75A8.962 8.962 0 0 0 12 4c-4.8 0-8.88 3.96-9 8.76A8.998 8.998 0 0 0 12 22a8.994 8.994 0 0 0 7.03-14.61zM12 20c-3.87 0-7-3.13-7-7s3.13-7 7-7s7 3.13 7 7s-3.13 7-7 7z"/><path d="M6.67 15.74a6 6 0 0 0 2.83 2.71c.23.11.51.01.63-.21l1.43-2.48a.502.502 0 0 0-.43-.75H7.11a.494.494 0 0 0-.44.73zm5.03 3.25c1.48.08 2.79-.4 3.77-1.1c.2-.15.25-.43.13-.65l-1.44-2.49a.506.506 0 0 0-.87 0l-2.01 3.48c-.18.33.05.74.42.76zm.6-11.98c-1.48-.08-2.79.4-3.77 1.1c-.2.15-.25.43-.13.65l1.44 2.49c.19.33.67.33.87 0l2.01-3.48a.516.516 0 0 0-.42-.76zM6.97 9.73a5.968 5.968 0 0 0-.94 3.83c.03.25.25.44.5.44H9.4c.38 0 .63-.42.43-.75L7.82 9.76a.5.5 0 0 0-.85-.03zm10.06 6.54c.66-1.02 1.08-2.33.94-3.83c-.02-.25-.25-.44-.5-.44H14.6c-.38 0-.63.42-.43.75l2.01 3.49a.5.5 0 0 0 .85.03zm-3.16-8.5l-1.43 2.48c-.2.33.04.75.43.75h4.02c.38 0 .62-.4.45-.74a6 6 0 0 0-2.83-2.71a.51.51 0 0 0-.64.22z"/></svg>