<svg xmlns="http://www.w3.org/2000/svg" width="24" height="24" viewBox="0 0 24 24"><path d="M19.83 16.9a9.96 9.96 0 0 1-7.82-4.95C10.3 9 10.28 5.56 11.63 2.7c.16-.35-.13-.73-.52-.69c-2.14.19-4.3 1.06-6.06 2.76c-2.09 2-3.15 4.83-3.03 7.65C2.63 12.15 3.3 12 4 12c1.65 0 3.17.83 4.1 2.15A4.01 4.01 0 0 1 11 18c0 1.49-.83 2.78-2.04 3.46c2.59.83 5.5.61 8.04-.86c1.3-.75 2.37-1.76 3.18-2.92c.22-.3.04-.75-.35-.78zM7 16h-.18C6.4 14.84 5.3 14 4 14c-1.66 0-3 1.34-3 3s1.34 3 3 3h3c1.1 0 2-.9 2-2s-.9-2-2-2z"/></svg>