<svg xmlns="http://www.w3.org/2000/svg" width="24" height="24" viewBox="0 0 24 24"><path d="M17 10c1.08 0 2.09.25 3 .68v-4.3a2 2 0 0 0-1.3-1.87l-6-2.25c-.45-.17-.95-.17-1.4 0l-6 2.25C4.52 4.81 4 5.55 4 6.39v4.7c0 5.05 3.41 9.76 8 10.91c.03-.01.05-.02.08-.02A6.996 6.996 0 0 1 10 17c0-3.87 3.13-7 7-7z"/><path d="M17 12c-2.76 0-5 2.24-5 5s2.24 5 5 5s5-2.24 5-5s-2.24-5-5-5zm0 2c.83 0 1.5.67 1.5 1.5S17.83 17 17 17s-1.5-.67-1.5-1.5s.67-1.5 1.5-1.5zm0 6c-1.03 0-1.94-.52-2.48-1.32c.73-.42 1.57-.68 2.48-.68s1.75.26 2.48.68c-.54.8-1.45 1.32-2.48 1.32z"/></svg>