<svg xmlns="http://www.w3.org/2000/svg" width="24" height="24" viewBox="0 0 24 24"><path d="M11.74 8.91l5.02-2.33c.42-.2.86.24.66.66l-2.33 5.02l5.25 5.25c1.37-2.07 2-4.68 1.48-7.45c-.75-3.95-3.92-7.13-7.88-7.88c-2.77-.52-5.38.1-7.45 1.48l5.25 5.25zM2.1 3.51a.996.996 0 0 0 0 1.41l1.56 1.56c-1.37 2.07-2 4.68-1.48 7.45c.75 3.95 3.92 7.13 7.88 7.88c2.77.52 5.38-.1 7.45-1.48l1.56 1.56a.996.996 0 1 0 1.41-1.41L3.51 3.51a.996.996 0 0 0-1.41 0zm4.48 13.25l2.33-5.02l3.35 3.35l-5.02 2.33c-.42.2-.86-.24-.66-.66z"/></svg>