<svg xmlns="http://www.w3.org/2000/svg" width="24" height="24" viewBox="0 0 24 24"><path d="M2.74 2.81a.966.966 0 0 0-1.37 0c-.38.38-.38.99 0 1.37l.64.64L2 19.56c0 .89 1.08 1.34 1.71.71L6 17.98h9.17l4.61 4.61a.996.996 0 1 0 1.41-1.41L2.74 2.81zM6.4 9.2l1.38 1.38c-.18.23-.46.4-.78.4c-.55 0-1-.45-1-1c0-.32.16-.59.4-.78zm.6 4.78c-.55 0-1-.45-1-1s.45-1 1-1s1 .45 1 1s-.45 1-1 1zM20 2H4.83l5.22 5.22C10.03 7.14 10 7.08 10 7c0-.55.45-1 1-1h6c.55 0 1 .45 1 1s-.45 1-1 1h-6c-.08 0-.14-.03-.22-.04L11.83 9H17c.55 0 1 .45 1 1s-.45 1-1 1h-3.17l6.87 6.87c.75-.29 1.3-1.02 1.3-1.87V4c0-1.1-.9-2-2-2z"/></svg>