<svg xmlns="http://www.w3.org/2000/svg" width="24" height="24" viewBox="0 0 24 24"><circle cx="4.5" cy="9.5" r="2.5"/><circle cx="9" cy="5.5" r="2.5"/><circle cx="15" cy="5.5" r="2.5"/><circle cx="19.5" cy="9.5" r="2.5"/><path d="M17.35 14.86c-.87-1.02-1.61-2.39-2.49-3.41C13.61 9.98 12.73 10 12 10c-.78 0-1.61.01-2.87 1.46c-.87 1.02-1.59 2.39-2.47 3.41c-1.31 1.31-2.92 2.76-2.62 4.79c.29 1.02 1.02 2.03 2.33 2.32c.73.15 3.15-.44 5.63-.44c2.77 0 4.89.58 5.63.44c1.31-.29 2.04-1.31 2.33-2.32c.31-2.04-1.3-3.49-2.61-4.8z"/></svg>