<svg xmlns="http://www.w3.org/2000/svg" width="24" height="24" viewBox="0 0 24 24"><path d="M6.94 17l1.5-1.5c.78-.78 2.05-.78 2.83 0l1.5 1.5h4.3c1.07 0 1.94-.87 1.94-1.94V4c0-1.1-.9-2-2-2H7c-1.1 0-2 .9-2 2v11.06C5 16.13 5.87 17 6.94 17zM7 4h10v9.13c-1.88-.89-4.11-1.13-5-1.13s-3.12.24-5 1.13V4z"/><circle cx="12" cy="8" r="3"/><path d="M12.64 18.29l-2.09-2.09a.996.996 0 1 0-1.41 1.41l.39.39H6c-.55 0-1 .45-1 1s.45 1 1 1h3.53l-.38.38a.996.996 0 1 0 1.41 1.41l2.09-2.09c.38-.38.38-1.02-.01-1.41zM15 20h3c.55 0 1-.45 1-1s-.45-1-1-1h-3c-.55 0-1 .45-1 1s.45 1 1 1z"/></svg>