<svg xmlns="http://www.w3.org/2000/svg" width="24" height="24" viewBox="0 0 24 24"><path d="M21.97 15.94l-1.07-7.5A3.999 3.999 0 0 0 16.93 5H7.06c-2 0-3.69 1.46-3.97 3.44l-1.07 7.49c-.21 1.55.93 3.06 2.5 3.07c.68 0 1.33-.27 1.81-.75L8.6 16h6.8l2.25 2.25c.84.84 2.2 1.04 3.27.28c.82-.58 1.19-1.61 1.05-2.59zm-11.72-4.69h-1v1c0 .41-.34.75-.75.75s-.75-.34-.75-.75v-1h-1c-.41 0-.75-.34-.75-.75s.34-.75.75-.75h1v-1c0-.41.34-.75.75-.75s.75.34.75.75v1h1c.41 0 .75.34.75.75s-.34.75-.75.75zM15 10c-.55 0-1-.45-1-1s.45-1 1-1s1 .45 1 1s-.45 1-1 1zm2 3c-.55 0-1-.45-1-1s.45-1 1-1s1 .45 1 1s-.45 1-1 1z"/></svg>