<svg xmlns="http://www.w3.org/2000/svg" width="24" height="24" viewBox="0 0 24 24"><path d="M9 19c-1 0-4-3-4-4c0-.333.333-1 1-2l-2.623-.656a1 1 0 0 1-.59-1.525l.822-1.233a1 1 0 0 1 1.075-.415L8 10c4-6 10-8 14-8c0 4-2 10-8 14l.83 3.316a1 1 0 0 1-.416 1.075l-1.233.822a1 1 0 0 1-1.525-.59L11 18c-1 .667-1.667 1-2 1zm6.5-9a1.5 1.5 0 1 0 0-3a1.5 1.5 0 0 0 0 3zM4 16l1 1.5c-.667.667-1 1.5-1 2.5c1 0 1.833-.333 2.5-1L8 20c-1.14 1.14-2.768 1.793-4.883 1.958a1 1 0 0 1-1.075-1.075C2.207 18.768 2.86 17.14 4 16z" fill-rule="evenodd"/></svg>