<svg xmlns="http://www.w3.org/2000/svg" width="24" height="24" viewBox="0 0 24 24"><path d="M10.01 6.35C13.71 5.01 18 7.71 18 12h-1.79c-.45 0-.67.54-.35.85l2.79 2.79c.2.2.51.2.71 0l2.79-2.79a.5.5 0 0 0-.35-.85H20c0-5.76-5.78-9.39-10.79-7.48c-.64.24-.79 1.08-.31 1.55l.08.08c.27.27.67.33 1.03.2zm3.97 11.29C10.14 19.01 6 16.17 6 12h1.79c.45 0 .67-.54.35-.85l-2.79-2.8c-.2-.2-.51-.2-.71 0l-2.79 2.79c-.31.32-.09.86.36.86H4c0 5.76 5.78 9.39 10.79 7.48c.63-.24.78-1.08.3-1.56l-.07-.07c-.27-.27-.67-.33-1.04-.21z"/></svg>