<svg xmlns="http://www.w3.org/2000/svg" width="24" height="24" viewBox="0 0 24 24"><path d="M19.97 13.2a.991.991 0 0 0-1.22 0l-1.23.96l1.43 1.43l1.03-.8c.51-.4.51-1.17 0-1.57l-.01-.02zm.02-3.49c.51-.4.51-1.18 0-1.58l-6.76-5.26c-.72-.56-1.73-.56-2.46 0L8.23 4.86l7.88 7.88l3.88-3.03zm.49 10.23L3.51 2.97A.996.996 0 1 0 2.1 4.38l2.95 2.95l-1.04.81c-.51.4-.51 1.18 0 1.58l6.76 5.26c.61.48 1.43.52 2.11.18l1.47 1.47l-2.36 1.84l-6.77-5.26a.991.991 0 0 0-1.22 0a.997.997 0 0 0 0 1.57l6.76 5.26c.72.56 1.73.56 2.46 0l2.55-1.98l3.3 3.3c.39.39 1.02.39 1.41 0a.99.99 0 0 0 0-1.42z"/></svg>