<svg xmlns="http://www.w3.org/2000/svg" width="24" height="24" viewBox="0 0 24 24"><path d="M6.59 16.38c-.39-.26-.7-.61-.94-1.02c-.23-.4-.04-.92.38-1.09a.77.77 0 0 1 .96.32c.12.21.26.38.43.53c.32.27.71.4 1.17.4c.47 0 .87-.14 1.2-.43c.31-.26.49-.63.5-1.03c.01-.47-.16-.85-.53-1.15c-.35-.28-.8-.43-1.33-.43h-.11c-.39 0-.71-.32-.71-.71c0-.39.32-.71.71-.71h.03c.46 0 .84-.12 1.15-.37c.31-.25.47-.58.47-1.01c0-.38-.14-.69-.42-.91c-.28-.22-.63-.33-1.06-.33c-.42 0-.75.11-1 .34c-.11.1-.2.2-.28.31c-.2.28-.57.38-.89.25a.75.75 0 0 1-.3-1.17c.16-.2.34-.38.56-.55C7.08 7.2 7.72 7 8.51 7c.58 0 1.1.11 1.56.34c.46.22.82.53 1.08.93c.26.4.39.84.39 1.33c0 .5-.12.93-.36 1.28s-.54.62-.89.8v.08c.47.2.85.49 1.15.89c.3.4.45.88.45 1.44c0 .56-.14 1.06-.43 1.49c-.28.44-.68.78-1.17 1.03c-.52.26-1.08.39-1.7.39c-.72 0-1.38-.21-2-.62zm7.39.08c-.23-.16-.42-.33-.59-.52a.75.75 0 0 1 .26-1.19c.31-.13.67-.05.88.21c.12.15.26.28.42.38c.3.2.65.29 1.04.29c.38 0 .7-.07.96-.2s.39-.34.39-.61c0-.26-.11-.47-.34-.61c-.22-.15-.57-.28-1.03-.39l-.85-.21c-.57-.14-1.04-.39-1.41-.74c-.37-.35-.56-.8-.56-1.34c0-.42.12-.79.37-1.1c.25-.32.58-.56 1-.73c.42-.17.87-.26 1.37-.26c.66 0 1.24.13 1.75.4c.18.09.34.2.48.33c.39.34.27.97-.21 1.18c-.26.11-.58.08-.77-.13c-.29-.31-.7-.46-1.24-.46c-.34 0-.63.07-.87.21c-.23.14-.35.32-.35.54c0 .21.09.39.27.52c.18.14.44.25.78.34l1.05.26c.7.18 1.23.45 1.58.8c.36.36.54.8.54 1.32c0 .45-.13.84-.38 1.18c-.26.34-.61.6-1.05.79s-.94.28-1.48.28c-.82 0-1.49-.18-2.01-.54z"/></svg>