<svg xmlns="http://www.w3.org/2000/svg" width="24" height="24" viewBox="0 0 24 24"><circle cx="13.5" cy="3.5" r="2"/><path d="M19 11.91c0-.49-.36-.9-.84-.98c-1.53-.25-2.79-1.16-3.47-2.35l-1-1.58c-.4-.6-1-1-1.7-1c-.68 0-1.28.28-4.77 1.76C6.49 8.07 6 8.8 6 9.6V12c0 .55.45 1 1 1s1-.45 1-1V9.58l1.79-.7l-1.6 8.1l-3.79-.79c-.55-.12-1.09.24-1.21.8c-.11.55.25 1.08.79 1.2l3.98.81c1.06.22 2.11-.46 2.35-1.52l.57-2.49l2.11 2V22c0 .55.45 1 1 1s1-.45 1-1v-5.66c0-.55-.23-1.07-.62-1.45l-1.49-1.41l.6-3a7.372 7.372 0 0 0 4.37 2.43c.61.1 1.15-.39 1.15-1z"/></svg>