<svg xmlns="http://www.w3.org/2000/svg" width="24" height="24" viewBox="0 0 24 24"><path d="M17 16.99c-2.55 0-3.11 1.4-5 1.4c-1.95 0-2.41-1.4-5-1.4c-2.21 0-2.9 1.03-4.26 1.32c-.42.09-.74.44-.74.87v.2c0 .56.51.96 1.06.86c1.69-.31 2.34-1.31 3.94-1.31c1.96 0 2.4 1.4 5 1.4c2.59 0 3.09-1.4 5-1.4c1.67 0 2.25 1.03 4.01 1.32c.52.09.99-.35.99-.87v-.21c0-.43-.32-.78-.74-.87c-1.38-.27-2.04-1.31-4.26-1.31zm0-4.45c-2.49 0-3.16 1.4-5 1.4c-1.95 0-2.41-1.4-5-1.4c-2.18 0-2.92 1.04-4.28 1.33c-.41.08-.72.43-.72.86v.21c0 .56.52.97 1.07.86c1.68-.31 2.32-1.31 3.93-1.31c1.95 0 2.41 1.4 5 1.4c2.56 0 3.06-1.4 5-1.4c1.67 0 2.25 1.03 4.01 1.32c.52.09.99-.34.99-.87v-.21c0-.43-.32-.78-.74-.87c-1.38-.28-2.04-1.32-4.26-1.32zm0-8.88c-2.54 0-3.13 1.4-5 1.4c-1.94 0-2.44-1.4-5-1.4c-2.21 0-2.9 1.03-4.26 1.32c-.42.09-.74.44-.74.87v.18c0 .56.52.97 1.07.87C4.74 6.58 5.43 5.59 7 5.59c1.96 0 2.4 1.4 5 1.4c2.55 0 3.12-1.4 5-1.4c1.67 0 2.25 1.03 4.01 1.32c.52.09.99-.34.99-.87v-.2c0-.43-.32-.78-.75-.87c-1.39-.29-2.05-1.31-4.25-1.31zm0 4.43c-2.54 0-3.08 1.4-5 1.4c-1.95 0-2.41-1.4-5-1.4c-2.2 0-2.88 1.03-4.26 1.32c-.42.09-.74.44-.74.87v.2c0 .56.52.97 1.07.86c1.67-.32 2.39-1.3 3.93-1.3c1.94 0 2.41 1.4 5 1.4c2.55 0 3.12-1.4 5-1.4c1.67 0 2.25 1.03 4.01 1.32c.52.09.99-.35.99-.87v-.21c0-.43-.32-.78-.74-.87c-1.38-.28-2.04-1.32-4.26-1.32z"/></svg>