<svg xmlns="http://www.w3.org/2000/svg" width="24" height="24" viewBox="0 0 24 24"><path d="M22.65 10.7C20.74 6.74 16.69 4 12 4c-1.53 0-3 .3-4.34.83l2.55 2.55A4.45 4.45 0 0 1 12 7c2.48 0 4.5 2.02 4.5 4.5c0 .64-.14 1.24-.38 1.79l3.17 3.17c1.41-1.11 2.57-2.53 3.35-4.16c.25-.5.25-1.1.01-1.6z"/><path d="M12 8.8c-.12 0-.23.02-.34.03l3 3c.01-.11.03-.22.03-.34c.01-1.48-1.2-2.69-2.69-2.69zM3.51 3.51A.996.996 0 1 0 2.1 4.92l2.06 2.06C3 8.02 2.04 9.28 1.35 10.7c-.24.5-.24 1.1 0 1.6C3.26 16.26 7.31 19 12 19c1.26 0 2.47-.2 3.6-.57l3.47 3.47a.996.996 0 1 0 1.41-1.41L3.51 3.51zM12 16c-2.48 0-4.5-2.02-4.5-4.5c0-.36.05-.7.13-1.04l1.78 1.78a2.7 2.7 0 0 0 1.84 1.84l1.78 1.78c-.33.09-.67.14-1.03.14z"/></svg>