<svg xmlns="http://www.w3.org/2000/svg" width="24" height="24" viewBox="0 0 24 24"><path d="M11.99 2C6.47 2 2 6.48 2 12s4.47 10 9.99 10C17.52 22 22 17.52 22 12S17.52 2 11.99 2zM8.5 8c.83 0 1.5.67 1.5 1.5S9.33 11 8.5 11S7 10.33 7 9.5S7.67 8 8.5 8zm8.15 6.92C15.63 16.53 13.9 17.5 12 17.5s-3.63-.96-4.65-2.59a.747.747 0 1 1 1.27-.79C9.36 15.3 10.62 16 12 16s2.64-.7 3.38-1.87c.21-.35.68-.46 1.03-.24c.35.22.46.68.24 1.03zM15.5 11c-.83 0-1.5-.67-1.5-1.5S14.67 8 15.5 8s1.5.67 1.5 1.5s-.67 1.5-1.5 1.5z"/></svg>