<svg xmlns="http://www.w3.org/2000/svg" width="24" height="24" viewBox="0 0 24 24"><path d="M4 14h5c.55 0 1-.45 1-1s-.45-1-1-1H4c-.55 0-1 .45-1 1s.45 1 1 1zm11.04 3l-.04-.08c1.06-1.06 3.13-3.13 3.66-3.64c1.46-1.46 2.16-2.9 2.16-4.3C20.82 6.85 19.15 5 16.4 5c-1.95 0-3.18 1-3.83 2a.991.991 0 0 0 .45 1.47l.16.07c.46.19.96 0 1.23-.42c.32-.5.91-1.04 1.95-1.04c1.86 0 2.22 1.45 2.22 1.94c0 .74-.04 1.28-1.46 2.8c-.45.49-1.4 1.48-4.59 4.67A1.472 1.472 0 0 0 13.57 19H20c.55 0 1-.45 1-1s-.45-1-1-1h-4.96z"/></svg>