<svg xmlns="http://www.w3.org/2000/svg" width="24" height="24" viewBox="0 0 24 24"><path d="M19.5 12.1c.93 0 1.78.28 2.5.76V8.1c0-1.1-.9-2-2-2h-6.29l-1.06-1.06l1.05-1.05c.2-.2.2-.51 0-.71c-.2-.2-.51-.2-.71 0L10.18 6.1c-.2.2-.2.51 0 .71c.2.2.51.2.71 0l1.06-1.06L13 6.81V9.1c0 1.1-.9 2-2 2h-.54a5.98 5.98 0 0 1 1.54 4c0 .34-.04.67-.09 1h3.14c.25-2.25 2.14-4 4.45-4z"/><path d="M19.5 13.1c-1.93 0-3.5 1.57-3.5 3.5s1.57 3.5 3.5 3.5s3.5-1.57 3.5-3.5s-1.57-3.5-3.5-3.5zm0 5c-.83 0-1.5-.67-1.5-1.5s.67-1.5 1.5-1.5s1.5.67 1.5 1.5s-.67 1.5-1.5 1.5zM4 9.1h5c0-1.1-.9-2-2-2H4c-.55 0-1 .45-1 1s.45 1 1 1zm2 1c-2.76 0-5 2.24-5 5s2.24 5 5 5s5-2.24 5-5s-2.24-5-5-5zm0 8c-1.65 0-3-1.35-3-3s1.35-3 3-3s3 1.35 3 3s-1.35 3-3 3z"/><circle cx="6" cy="15.1" r="1.5"/></svg>