<svg xmlns="http://www.w3.org/2000/svg" width="24" height="24" viewBox="0 0 24 24"><path d="M4 7h16c.55 0 1 .45 1 1s-.45 1-1 1H4c-.55 0-1-.45-1-1s.45-1 1-1zm0 6h16c.55 0 1-.45 1-1s-.45-1-1-1H4c-.55 0-1 .45-1 1s.45 1 1 1zm0 4h7c.55 0 1-.45 1-1s-.45-1-1-1H4c-.55 0-1 .45-1 1s.45 1 1 1zm0 4h7c.55 0 1-.45 1-1s-.45-1-1-1H4c-.55 0-1 .45-1 1s.45 1 1 1zm12.41-2.83l-.71-.71a.996.996 0 1 0-1.41 1.41l1.42 1.43c.39.39 1.02.39 1.41 0l3.18-3.17a.996.996 0 0 0 0-1.41l-.01-.01a.996.996 0 0 0-1.41 0l-2.47 2.46zM3 4c0 .56.45 1 1 1h16c.55 0 1-.45 1-1s-.45-1-1-1H4c-.55 0-1 .45-1 1z"/></svg>