<svg xmlns="http://www.w3.org/2000/svg" width="24" height="24" viewBox="0 0 24 24"><path d="M20.94 11A8.994 8.994 0 0 0 13 3.06V2c0-.55-.45-1-1-1s-1 .45-1 1v1.06c-1.38.15-2.66.62-3.78 1.33l1.45 1.45c1.33-.72 2.93-1.02 4.61-.73c2.82.5 5.11 2.78 5.61 5.61c.3 1.68 0 3.28-.73 4.61l1.45 1.45c.71-1.12 1.18-2.4 1.33-3.78H22c.55 0 1-.45 1-1s-.45-1-1-1h-1.06zM2.1 4.93l2.29 2.29A8.824 8.824 0 0 0 3.06 11H2c-.55 0-1 .45-1 1s.45 1 1 1h1.06A8.994 8.994 0 0 0 11 20.94V22c0 .55.45 1 1 1s1-.45 1-1v-1.06c1.38-.15 2.66-.62 3.78-1.33l2.29 2.29a.996.996 0 1 0 1.41-1.41L3.51 3.51a.996.996 0 0 0-1.41 0c-.39.4-.39 1.03 0 1.42zm3.74 3.74l9.49 9.49c-.99.54-2.12.84-3.33.84c-3.87 0-7-3.13-7-7c0-1.21.3-2.34.84-3.33z"/></svg>