<svg xmlns="http://www.w3.org/2000/svg" width="24" height="24" viewBox="0 0 24 24"><path d="M17.5 4.21c-2.59 0-4.5.91-5.5 1.48c-1-.58-2.91-1.48-5.5-1.48c-2.32 0-4.06.73-4.98 1.2c-.54.27-.52.85-.52.87v11.89a1 1 0 0 0 1.48.87C4.33 18.06 5.87 18 6.5 18c.64 0 2.2.06 4.06 1.06c1.35.72 2.55.18 2.88 0c1.86-1 3.42-1.06 4.06-1.06c.63 0 2.17.06 4.02 1.04c.74.39 1.48-.19 1.48-.87V6.29c0-.14-.04-.64-.53-.89c-.92-.47-2.65-1.19-4.97-1.19zM21 16.62c-1.14-.41-2.31-.62-3.5-.62c-1.9 0-3.78.54-5.5 1.58V8c1.33-.77 2.9-1.79 5.5-1.79c1.2 0 2.39.25 3.5.72v9.69z"/></svg>