<svg xmlns="http://www.w3.org/2000/svg" width="24" height="24" viewBox="0 0 24 24"><path d="M12 2C6.48 2 2 6.48 2 12s4.48 10 10 10s10-4.48 10-10S17.52 2 12 2zM7.46 14.28c-.46-.19-.69-.69-.58-1.17c.08-.35.12-.71.12-1.08c0-.37-.04-.73-.12-1.08c-.11-.48.12-.98.58-1.17c.56-.23 1.22.08 1.36.68c.12.5.18 1.03.18 1.57s-.06 1.07-.18 1.57c-.14.6-.79.91-1.36.68zm3.27 1.34a.992.992 0 0 1-.58-1.19c.23-.76.35-1.56.35-2.4c0-.83-.12-1.64-.35-2.4c-.14-.49.11-1 .58-1.19c.55-.23 1.18.08 1.35.65a10.55 10.55 0 0 1 0 5.89c-.17.57-.8.87-1.35.64zm3.25 1.34a.98.98 0 0 1-.57-1.21a12.023 12.023 0 0 0 0-7.44c-.16-.49.1-1.02.57-1.21c.54-.22 1.16.07 1.34.63a13.924 13.924 0 0 1 0 8.6c-.18.56-.8.86-1.34.63z"/></svg>