<svg xmlns="http://www.w3.org/2000/svg" width="24" height="24" viewBox="0 0 24 24"><path d="M7.94 5.11c.75-.45 1.57-.78 2.45-.95C15.5 3.16 20 7.06 20 12c0 1.48-.41 2.87-1.11 4.06l1.46 1.46c1.21-1.82 1.83-4.06 1.62-6.45c-.42-4.66-4.17-8.49-8.82-9a9.92 9.92 0 0 0-6.65 1.6l1.44 1.44z"/><path d="M10.69 6.14c-.45.09-.87.26-1.28.45l1.55 1.55c.02 0 .04-.01.06-.02A4.008 4.008 0 0 1 16 12c0 .36-.05.7-.14 1.03l1.56 1.56c.37-.79.58-1.66.58-2.59c0-3.74-3.42-6.68-7.31-5.86zM3.51 3.51A.996.996 0 1 0 2.1 4.92l1.57 1.57A9.942 9.942 0 0 0 2 12c0 2.36.82 4.53 2.18 6.24c.37.47 1.07.5 1.5.08c.36-.36.39-.93.07-1.32c-1.4-1.74-2.08-4.08-1.6-6.57c.17-.89.51-1.73.96-2.49l1.47 1.47c-.18.39-.33.79-.43 1.22c-.38 1.73-.02 3.37.83 4.66c.35.54 1.1.62 1.56.17c.34-.34.37-.87.11-1.28c-.58-.89-.81-2.03-.51-3.22L19.07 21.9a.996.996 0 1 0 1.41-1.41L3.51 3.51z"/></svg>