<svg xmlns="http://www.w3.org/2000/svg" width="24" height="24" viewBox="0 0 24 24"><path d="M12.65 15.67c.14-.36.05-.77-.23-1.05l-2.09-2.06l.03-.03A17.52 17.52 0 0 0 14.07 6H16a1 1 0 0 0 1-.99v-.02c0-.54-.45-.99-.99-.99H10V3c0-.55-.45-1-1-1s-1 .45-1 1v1H1.99c-.54 0-.99.45-.99.99c0 .55.45.99.99.99h10.17C11.5 7.92 10.44 9.75 9 11.35c-.81-.89-1.49-1.86-2.06-2.88A.885.885 0 0 0 6.16 8c-.69 0-1.13.75-.79 1.35c.63 1.13 1.4 2.21 2.3 3.21L3.3 16.87a.99.99 0 0 0 0 1.42c.39.39 1.02.39 1.42 0L9 14l2.02 2.02c.51.51 1.38.32 1.63-.35zM17.42 10c-.65 0-1.22.4-1.45 1l-3.64 9.69a.96.96 0 0 0 .9 1.3c.41 0 .77-.26.91-.64l.86-2.43h4.84l.85 2.42c.14.39.5.65.91.65a.96.96 0 0 0 .9-1.3L18.87 11c-.23-.6-.81-1-1.45-1zm-1.79 7.19l1.74-4.96h.1l1.74 4.96h-3.58z"/></svg>