<svg xmlns="http://www.w3.org/2000/svg" width="24" height="24" viewBox="0 0 24 24"><path d="M19 2H5a2 2 0 0 0-2 2v14c0 1.1.9 2 2 2h4l2.29 2.29c.39.39 1.02.39 1.41 0L15 20h4c1.1 0 2-.9 2-2V4c0-1.1-.9-2-2-2zm-6.99 15c-.7 0-1.26-.56-1.26-1.26c0-.71.56-1.25 1.26-1.25c.71 0 1.25.54 1.25 1.25c-.01.69-.54 1.26-1.25 1.26zm3.01-7.4c-.76 1.11-1.48 1.46-1.87 2.17c-.1.18-.16.32-.19.62c-.05.46-.45.79-.91.79c-.54 0-.98-.46-.92-1c.03-.32.11-.67.29-.98c.49-.87 1.42-1.39 1.96-2.16c.57-.81.25-2.33-1.37-2.33c-.71 0-1.18.36-1.47.79c-.25.36-.69.53-1.1.36a.884.884 0 0 1-.4-1.32C9.65 5.65 10.67 5 11.99 5c1.48 0 2.49.67 3.01 1.52c.44.72.7 2.07.02 3.08z"/></svg>