<svg xmlns="http://www.w3.org/2000/svg" width="24" height="24" viewBox="0 0 24 24"><path d="M5 21v2h2c0-1.1-.9-2-2-2zm1.2-3.88c-.55-.1-1.07.24-1.18.78c-.11.54.24 1.07.78 1.18c1.58.32 2.8 1.54 3.12 3.12c.1.47.51.8.98.8c.07 0 .13-.01.2-.02c.54-.11.89-.64.78-1.18a5.99 5.99 0 0 0-4.68-4.68zM17 1.01L7 1c-1.1 0-2 .9-2 2v9h2V6h10v15h-1v2h1c1.1 0 2-.9 2-2V3c0-1.1-.9-1.99-2-1.99z"/><path d="M6.11 13.06a1 1 0 0 0-1.1.88c-.06.55.33 1.04.88 1.1c3.68.41 6.65 3.38 7.06 7.06c.05.52.49.9.99.9c.04 0 .07 0 .11-.01c.55-.06.94-.56.88-1.1c-.5-4.6-4.22-8.32-8.82-8.83z"/></svg>