<svg xmlns="http://www.w3.org/2000/svg" width="24" height="24" viewBox="0 0 24 24"><path d="M10.59 15.41c.78.78 2.05.78 2.83 0c.53-.53 2.91-4.22 4.39-6.53c.29-.45-.24-.98-.69-.69c-2.31 1.48-6 3.86-6.53 4.39c-.79.79-.79 2.05 0 2.83z"/><path d="M19.46 10.01c0 .01-.01.02-.01.02c-.18.28-.19.63-.07.93a7.8 7.8 0 0 1-.47 7.03l-13.82.03A8.006 8.006 0 0 1 4 14c0-4.41 3.59-8 8-8h.23c.99.03 1.93.25 2.81.61c.31.13.66.11.94-.07c.01 0 .01-.01.02-.01c.67-.43.58-1.43-.15-1.75c-1.1-.47-2.3-.75-3.56-.79c-.1.01-.2.01-.29.01C6.48 4 2 8.48 2 14c0 1.84.5 3.56 1.37 5.03c.36.61 1.02.97 1.72.97h13.82c.7 0 1.36-.36 1.72-.97A9.904 9.904 0 0 0 22 13.87a9.81 9.81 0 0 0-.79-3.7c-.31-.74-1.32-.83-1.75-.16z"/></svg>