<svg xmlns="http://www.w3.org/2000/svg" width="24" height="24" viewBox="0 0 24 24"><path d="M16.25 13.42c.15-.45.25-.92.25-1.42A4.5 4.5 0 0 0 14 7.97v3.2l2.25 2.25z"/><path d="M19 12c0 1.21-.31 2.34-.85 3.32l1.46 1.46A8.973 8.973 0 0 0 21 12c0-3.83-2.4-7.11-5.78-8.4c-.59-.23-1.22.23-1.22.86v.19c0 .38.25.71.61.85C17.18 6.54 19 9.06 19 12zM2.1 3.51a.996.996 0 0 0 0 1.41L6.17 9H4c-.55 0-1 .45-1 1v4c0 .55.45 1 1 1h3l3.29 3.29c.63.63 1.71.18 1.71-.71v-2.76l3.32 3.32c-.23.13-.47.24-.71.35c-.37.16-.6.52-.6.91c0 .7.7 1.2 1.35.94c.5-.2.99-.45 1.44-.73l2.28 2.28a.996.996 0 1 0 1.41-1.41L3.51 3.51a.996.996 0 0 0-1.41 0zM12 9.17V6.41c0-.89-1.08-1.34-1.71-.71l-.88.89L12 9.17z"/></svg>