<svg xmlns="http://www.w3.org/2000/svg" width="24" height="24" viewBox="0 0 24 24"><path d="M18 15.17l.83.83h.67v-3H18v2.17zm-3.4-6.52h1.43c1.05 0 1.97.74 1.97 2.05v.55c0 .41.34.75.75.75s.75-.34.75-.75v-.89c0-1.81-1.6-3.16-3.47-3.16h-1.31c-.95 0-1.81-.64-2.02-1.57c-.23-1.04.38-1.88 1.27-2.12a.72.72 0 0 0 .53-.71c0-.51-.5-.86-.99-.71a3.337 3.337 0 0 0-2.36 3.35c.08 1.82 1.65 3.21 3.45 3.21zM20.5 16H22v-3h-1.5v3zM18.85 4.73c.4-.4.71-.86.87-1.43a.753.753 0 0 0-.73-.95c-.33 0-.63.21-.71.52c-.17.6-.62 1.06-1.2 1.24c-.34.11-.58.42-.58.78v.06c0 .41.3.74.7.81c1.9.34 3.3 2.01 3.3 4.01v1.48c0 .41.34.75.75.75s.75-.34.75-.75V9.76c0-2.22-1.28-4.14-3.15-5.03zm-16.75.2L10.17 13H3.5c-.83 0-1.5.67-1.5 1.5S2.67 16 3.5 16h9.67l5.9 5.9a.996.996 0 1 0 1.41-1.41L3.51 3.51a.996.996 0 0 0-1.41 0c-.39.39-.39 1.03 0 1.42zM17 14.17V13h-1.17L17 14.17z"/></svg>