<svg xmlns="http://www.w3.org/2000/svg" width="24" height="24" viewBox="0 0 24 24"><path d="M7 12c-2.76 0-5 2.24-5 5s2.24 5 5 5s5-2.24 5-5s-2.24-5-5-5zm2.12 6.41c.2.2.2.51 0 .71c-.2.2-.51.2-.71 0L7 17.71l-1.41 1.41c-.2.2-.51.2-.71 0c-.2-.2-.2-.51 0-.71L6.29 17l-1.41-1.41c-.2-.2-.2-.51 0-.71c.2-.2.51-.2.71 0L7 16.29l1.41-1.41c.2-.2.51-.2.71 0c.2.2.2.51 0 .71L7.71 17l1.41 1.41z"/><path d="M15.73 13.31c1.13-1.54 1.63-3.57.99-5.72c-.68-2.27-2.63-4.04-4.96-4.47A6.502 6.502 0 0 0 4 9.5c0 .39.04.76.1 1.13a6.74 6.74 0 0 1 1.95-.56C6.03 9.88 6 9.7 6 9.5a4.5 4.5 0 0 1 5.41-4.41a4.44 4.44 0 0 1 3.3 2.82c.8 2.2-.16 4.35-1.82 5.41l6.98 6.98a.996.996 0 1 0 1.41-1.41l-5.55-5.58z"/></svg>