<svg xmlns="http://www.w3.org/2000/svg" width="24" height="24" viewBox="0 0 24 24"><path d="M17.25 16H7.67c-2.09 0-3.95-1.53-4.15-3.61A3.998 3.998 0 0 1 7.5 8h10.36c1.31 0 2.5.94 2.63 2.24A2.5 2.5 0 0 1 18 13H8.5c-.55 0-1-.45-1-1s.45-1 1-1h8.75c.41 0 .75-.34.75-.75s-.34-.75-.75-.75H8.64c-1.31 0-2.5.94-2.63 2.24A2.5 2.5 0 0 0 8.5 14.5h9.33c2.09 0 3.95-1.53 4.15-3.61A3.998 3.998 0 0 0 18 6.5H7.73c-2.87 0-5.44 2.1-5.71 4.96A5.505 5.505 0 0 0 7.5 17.5h9.75c.41 0 .75-.34.75-.75s-.34-.75-.75-.75z"/></svg>