<svg xmlns="http://www.w3.org/2000/svg" width="24" height="24" viewBox="0 0 24 24"><path d="M12 4a9 9 0 1 0 .001 18.001A9 9 0 0 0 12 4zm1.75 10.5c.41 0 .75.34.75.75s-.34.75-.75.75h-3.32c-.52 0-.93-.42-.93-.93c0-.23.08-.45.23-.62l2.6-2.95h-2.09c-.41 0-.75-.34-.75-.75s.35-.75.76-.75h3.29c.53 0 .96.43.96.96c0 .23-.09.46-.24.63l-2.57 2.91h2.06zM6.29 4.46a.996.996 0 1 0-1.41-1.41L2.05 5.88a.996.996 0 1 0 1.41 1.41l2.83-2.83zm15.66 1.42l-2.83-2.83a.996.996 0 1 0-1.41 1.41l2.83 2.83a.996.996 0 1 0 1.41-1.41z"/></svg>