<svg width="24" height="24" xmlns="http://www.w3.org/2000/svg" viewBox="0 0 24 24"><path d="M19.14 12.936c.036-.3.06-.612.06-.936s-.024-.636-.072-.936l2.028-1.584a.496.496 0 0 0 .12-.612l-1.92-3.324c-.12-.216-.372-.288-.588-.216l-2.388.96a7.03 7.03 0 0 0-1.62-.936l-.36-2.544a.48.48 0 0 0-.48-.408h-3.84a.467.467 0 0 0-.468.408l-.36 2.544a7.219 7.219 0 0 0-1.62.936l-2.388-.96a.475.475 0 0 0-.588.216l-1.92 3.324a.465.465 0 0 0 .12.612l2.028 1.584c-.048.3-.084.624-.084.936s.024.636.072.936L2.844 14.52a.496.496 0 0 0-.12.612l1.92 3.324c.12.216.372.288.588.216l2.388-.96a7.03 7.03 0 0 0 1.62.936l.36 2.544c.048.24.24.408.48.408h3.84c.24 0 .444-.168.468-.408l.36-2.544a7.219 7.219 0 0 0 1.62-.936l2.388.96c.216.084.468 0 .588-.216l1.92-3.324a.465.465 0 0 0-.12-.612l-2.004-1.584zM12 15.6c-1.98 0-3.6-1.62-3.6-3.6s1.62-3.6 3.6-3.6s3.6 1.62 3.6 3.6s-1.62 3.6-3.6 3.6z"/></svg>