<svg xmlns="http://www.w3.org/2000/svg" width="24" height="24" viewBox="0 0 24 24"><path d="M22.47 5.2C21.55 4.73 19.82 4 17.5 4c-2.59 0-4.5.91-5.5 1.48C11 4.91 9.09 4 6.5 4c-2.32 0-4.06.73-4.97 1.2c-.49.24-.53.75-.53.88v12.08a1 1 0 0 0 1.48.87C4.33 18.06 5.87 18 6.5 18c2.13 0 3.86.86 4.96 1.61c.35.23.78.2 1.07 0c1.1-.75 2.83-1.61 4.96-1.61c.63 0 2.17.06 4.02 1.04c.74.39 1.48-.19 1.48-.87V6.08c.01-.13-.03-.64-.52-.88zM21 16.62c-1.52-.55-2.78-.62-3.5-.62c-.87 0-3.03.09-5.5 1.58V7.79C13.28 7.05 14.87 6 17.5 6c.72 0 2.02.09 3.5.72v9.9z"/><path d="M19.4 13.21c-.61-.13-1.24-.21-1.9-.21c-1.05 0-2.05.19-2.99.52c-.3.11-.51.39-.51.71c0 .52.51.88 1 .7c.78-.28 1.62-.44 2.5-.44c.55 0 1.08.06 1.6.18c.46.11.9-.25.9-.73c0-.35-.25-.65-.6-.73zm0-2.75c-.61-.14-1.25-.21-1.9-.21c-1.05 0-2.05.19-2.99.52c-.3.11-.51.39-.51.71v.01c0 .52.51.88 1 .7c.78-.28 1.62-.44 2.5-.44c.55 0 1.08.07 1.59.18c.47.11.91-.25.91-.73c0-.36-.25-.66-.6-.74zm-4.88-2.45a.75.75 0 0 0-.52.71v.02c0 .52.51.88 1 .7c.78-.28 1.62-.44 2.5-.44c.55 0 1.08.07 1.59.18c.47.11.91-.25.91-.73v-.01c0-.36-.25-.66-.6-.74a9.14 9.14 0 0 0-1.9-.21c-1.05.01-2.05.19-2.98.52z"/></svg>