<svg xmlns="http://www.w3.org/2000/svg" width="24" height="24" viewBox="0 0 24 24"><path d="M7.85 5.02l1.51 1.51c1.56-.64 3.36-.79 5.29.01c1.71.71 3.1 2.1 3.8 3.81c.79 1.93.64 3.73 0 5.28l1.51 1.51A8.734 8.734 0 0 0 21 13c0-2.12-.74-4.07-1.97-5.61l.72-.72a.996.996 0 1 0-1.41-1.41l-.72.72A8.962 8.962 0 0 0 12 4c-1.5 0-2.91.38-4.15 1.02zM14 1h-4c-.55 0-1 .45-1 1s.45 1 1 1h4c.55 0 1-.45 1-1s-.45-1-1-1zM2.1 3.51a.996.996 0 0 0 0 1.41l2.69 2.69a8.948 8.948 0 0 0-1.67 6.89c.61 3.74 3.63 6.75 7.37 7.37c2.6.43 5.02-.27 6.88-1.67l1.69 1.69a.996.996 0 1 0 1.41-1.41L3.51 3.51a.996.996 0 0 0-1.41 0zM12 20c-3.86 0-7-3.14-7-7c0-1.46.45-2.82 1.22-3.95l9.72 9.72A6.87 6.87 0 0 1 12 20z"/><path d="M13 9c0-.55-.45-1-1-1c-.32 0-.59.16-.78.4l1.6 1.6l.18.17V9z"/></svg>