<svg xmlns="http://www.w3.org/2000/svg" width="24" height="24" viewBox="0 0 24 24"><path d="M19 13h-2v-3c0-.55-.45-1-1-1s-1 .45-1 1v3H5c-1.1 0-2 .9-2 2v4c0 1.1.9 2 2 2h14c1.1 0 2-.9 2-2v-4c0-1.1-.9-2-2-2zM7 18c-.55 0-1-.45-1-1s.45-1 1-1s1 .45 1 1s-.45 1-1 1zm3.5 0c-.55 0-1-.45-1-1s.45-1 1-1s1 .45 1 1s-.45 1-1 1zm3.5 0c-.55 0-1-.45-1-1s.45-1 1-1s1 .45 1 1s-.45 1-1 1zM11.12 5.12c.35.35.89.38 1.28.09C13.4 4.45 14.65 4 16 4s2.6.45 3.6 1.2c.39.3.93.26 1.28-.09l.02-.01a.989.989 0 0 0-.09-1.48C19.48 2.6 17.81 2 16 2s-3.48.6-4.82 1.62a.989.989 0 0 0-.09 1.48l.03.02zM16 5.5c-.79 0-1.53.2-2.17.56a.99.99 0 0 0-.21 1.56l.02.02c.32.32.81.35 1.21.14c.34-.18.74-.28 1.15-.28s.81.1 1.15.28c.4.21.89.18 1.21-.14l.02-.02a.99.99 0 0 0-.21-1.56c-.64-.36-1.38-.56-2.17-.56z"/></svg>