<svg xmlns="http://www.w3.org/2000/svg" width="24" height="24" viewBox="0 0 24 24"><path d="M19 19H5V5h5V3H5c-1.1 0-2 .9-2 2v14c0 1.1.9 2 2 2h14c1.1 0 2-.9 2-2v-3.33l-2-2V19z"/><path d="M7 17h10a.5.5 0 0 0 .4-.8l-2.75-3.67c-.2-.27-.6-.27-.8 0L11.25 16L9.4 13.53c-.2-.27-.6-.27-.8 0l-2 2.67a.5.5 0 0 0 .4.8zm12.88-8.11c.48-.77.75-1.67.69-2.66c-.13-2.15-1.84-3.97-3.97-4.2a4.5 4.5 0 0 0-5.02 4.47c0 2.49 2.01 4.5 4.49 4.5c.88 0 1.7-.26 2.39-.7l2.41 2.41c.39.39 1.03.39 1.42 0c.39-.39.39-1.03 0-1.42l-2.41-2.4zm-3.8.11a2.5 2.5 0 0 1 0-5a2.5 2.5 0 0 1 0 5z"/></svg>