<svg xmlns="http://www.w3.org/2000/svg" width="24" height="24" viewBox="0 0 24 24"><path d="M17 18H7V6h10v1h2V3c0-1.1-.9-2-2-2L7 1.01C5.9 1.01 5 1.9 5 3v18c0 1.1.9 2 2 2h10c1.1 0 2-.9 2-2v-4h-2v1zm2.1-4.25c.54-1.11.54-2.41-.01-3.52a.979.979 0 0 0-1.57-.25l-.1.1c-.27.27-.3.68-.12 1.02a2.016 2.016 0 0 1 0 1.79c-.19.37-.07.82.22 1.12c.47.48 1.28.35 1.58-.26zm.95-6.29c-.34.34-.39.88-.1 1.28a5.522 5.522 0 0 1 0 6.52c-.29.39-.24.93.11 1.27c.43.43 1.15.39 1.51-.1c1.93-2.63 1.93-6.25 0-8.87c-.38-.48-1.1-.52-1.52-.1z"/></svg>