<svg xmlns="http://www.w3.org/2000/svg" width="24" height="24" viewBox="0 0 24 24"><path d="M19 3H5c-1.1 0-2 .9-2 2v14c0 1.1.9 2 2 2h14c1.1 0 2-.9 2-2V5c0-1.1-.9-2-2-2zM6 6.5c0-.28.22-.5.5-.5h1.51a.5.5 0 0 1 .49.6c-.22.94-.96 1.68-1.9 1.91c-.31.07-.6-.18-.6-.5V6.5zm0 4.57c0-.42.3-.77.71-.84c1.8-.3 3.22-1.73 3.52-3.52a.85.85 0 0 1 .84-.71c.52 0 .94.47.85.99c-.42 2.52-2.41 4.52-4.93 4.93a.864.864 0 0 1-.99-.85zM17 17H7a.5.5 0 0 1-.4-.8l2-2.67c.2-.27.6-.27.8 0L11.25 16l2.6-3.47c.2-.27.6-.27.8 0l2.75 3.67a.5.5 0 0 1-.4.8z"/></svg>