<svg xmlns="http://www.w3.org/2000/svg" width="24" height="24" viewBox="0 0 24 24"><path d="M18.7 4.51l-6-2.25c-.45-.17-.95-.17-1.4 0l-6 2.25C4.52 4.81 4 5.55 4 6.39v4.7c0 4.83 3.13 9.37 7.43 10.75c.37.12.77.12 1.14 0c1.81-.58 3.4-1.72 4.65-3.2l-3.2-3.2c-1.53.9-3.53.71-4.85-.61a4.008 4.008 0 0 1 0-5.66a4.008 4.008 0 0 1 5.66 0a3.991 3.991 0 0 1 .61 4.85l2.96 2.96a11.75 11.75 0 0 0 1.61-5.89v-4.7c-.01-.84-.53-1.58-1.31-1.88z"/><path d="M13.41 10.59c-.78-.78-2.05-.78-2.83 0c-.78.78-.78 2.05 0 2.83c.78.78 2.05.78 2.83 0c.79-.79.79-2.05 0-2.83z"/></svg>