<svg xmlns="http://www.w3.org/2000/svg" width="24" height="24" viewBox="0 0 24 24"><path d="M12 2c-4.2 0-8 3.22-8 8.2c0 3.18 2.45 6.92 7.34 11.23c.38.33.95.33 1.33 0C17.55 17.12 20 13.38 20 10.2C20 5.22 16.2 2 12 2m.71 13.7c-.19.2-.43.3-.71.3c-.27 0-.53-.11-.71-.3a.95.95 0 0 1-.29-.71c-.01-.55.43-.99.98-1H12c.55-.01.99.43 1 .98v.02c0 .28-.1.52-.29.71m1.98-5.79c-.21.35-.48.71-.89 1.09c-.32.3-.53.56-.65.77c-.1.19-.16.49-.16.69v.07c-.01.27-.24.47-.51.47h-.85c-.28 0-.5-.22-.5-.5v-.16c0-.45.1-.84.29-1.16c.19-.33.52-.7 1-1.12c.28-.25.48-.47.61-.66s.19-.4.19-.64c0-.29-.11-.54-.32-.74c-.22-.2-.5-.3-.85-.3c-.37 0-.74.1-.96.3c-.12.12-.21.23-.29.38c-.03.07-.08.21-.09.26c-.05.17-.24.34-.47.34h-.69a.5.5 0 0 1-.5-.45c-.01-.08 0-.16.02-.24c.18-.72.52-1.16.9-1.52c.56-.5 1.28-.79 2.03-.79c.59 0 1.11.12 1.57.35s.79.55 1.05.96c.25.41.38.85.38 1.35c0 .49-.11.9-.31 1.25"/></svg>