<svg xmlns="http://www.w3.org/2000/svg" width="24" height="24" viewBox="0 0 24 24"><path d="M20.53 3.47c-.56-.56-2.16-.97-4.18-.97c-3.1 0-7.19.96-10.03 3.81c-4.71 4.72-4.27 12.79-2.85 14.22c.56.56 2.16.97 4.18.97c3.1 0 7.19-.96 10.03-3.81c4.71-4.72 4.27-12.79 2.85-14.22zM7.74 7.74c2.65-2.65 6.38-3.13 8.07-3.2c-2.06.94-4.48 2.46-6.64 4.63c-2.17 2.17-3.69 4.6-4.64 6.66c.09-2.49.88-5.77 3.21-8.09zm8.52 8.52c-2.65 2.65-6.38 3.13-8.07 3.2c2.06-.94 4.48-2.46 6.64-4.63c2.17-2.17 3.69-4.6 4.64-6.66c-.09 2.49-.88 5.77-3.21 8.09z"/></svg>