<svg xmlns="http://www.w3.org/2000/svg" width="24" height="24" viewBox="0 0 24 24"><path d="M21.75 18.34l-5.01-5.01a6.49 6.49 0 0 0 1.13-5.1c-.51-2.69-2.77-4.81-5.49-5.17C8.58 2.55 5.3 5.36 5.03 9H3.21a.5.5 0 0 0-.36.85l2.79 2.79c.2.2.51.2.71 0l2.79-2.79c.32-.31.1-.85-.35-.85H7.05c.28-2.46 2.52-4.34 5.13-3.95c1.81.27 3.33 1.67 3.71 3.46A4.506 4.506 0 0 1 11.5 14c-.49 0-.96-.09-1.4-.23a.98.98 0 0 0-1 .25c-.53.53-.32 1.43.38 1.66a6.471 6.471 0 0 0 5.85-.94l5.01 5.01a.996.996 0 1 0 1.41-1.41z"/></svg>