<svg xmlns="http://www.w3.org/2000/svg" width="24" height="24" viewBox="0 0 24 24"><path d="M3.87 6.03c.47.46 1.23.46 1.72.01c.3-.28.54-.44.71-.37c.5.2 0 1.03-.3 1.52c-.53.89-5.23 6.65-1.68 9.29c2.55 1.9 4.77-.96 5.86-2.31c1.21-1.49 2.83-3.44 4.08-3.44c1.63 0 1.65 1.01 1.76 1.79c-3.78.64-5.38 3.67-5.38 5.37c0 1.7 1.44 3.11 3.21 3.11c1.63 0 4.29-1.35 4.69-6.12h1.21a1.25 1.25 0 0 0 0-2.5h-1.22c-.15-1.65-1.09-4.2-4.03-4.2c-2.25 0-4.18 1.91-4.94 2.84C6.88 14.4 6.35 14.58 6 14.58c-.45 0-.72-.83-.36-1.92c1.04-3.24 3.31-4.27 3.31-6.8C8.95 3.69 7.31 3 6.44 3c-.77 0-1.6.34-2.53 1.2a1.26 1.26 0 0 0-.04 1.83zm10.01 12.52c-1.45 0-.69-2.74 2.13-3.48c-.3 2.69-1.43 3.48-2.13 3.48z"/></svg>