<svg xmlns="http://www.w3.org/2000/svg" width="24" height="24" viewBox="0 0 24 24"><path d="M16.6 15.18c.41-.56.75-1.17.99-1.84a1 1 0 0 0-.94-1.34a.98.98 0 0 0-.93.66A5.017 5.017 0 0 1 11 16c-1.38 0-2.62-.57-3.52-1.48l1.67-1.67a.5.5 0 0 0-.36-.85H4.5c-.28 0-.5.22-.5.5v4.29c0 .45.54.67.85.35l1.2-1.2A6.985 6.985 0 0 0 11 18c1.57 0 3.02-.52 4.19-1.4l3.69 3.69a.996.996 0 1 0 1.41-1.41l-3.69-3.7zM11 6c1.38 0 2.62.57 3.52 1.48l-1.67 1.67a.5.5 0 0 0 .36.85h4.29c.28 0 .5-.22.5-.5V5.21c0-.45-.54-.67-.85-.35l-1.2 1.2A6.985 6.985 0 0 0 4.42 8.64c-.24.66.23 1.36.93 1.36c.42 0 .79-.26.93-.66A5.017 5.017 0 0 1 11 6z"/></svg>