<svg xmlns="http://www.w3.org/2000/svg" width="24" height="24" viewBox="0 0 24 24"><path d="M21 13a9 9 0 0 0-9-9c-1.5 0-2.91.37-4.15 1.02l12.13 12.13A8.909 8.909 0 0 0 21 13zm.95-7.12l-2.83-2.83a.996.996 0 1 0-1.41 1.41l2.83 2.83a.996.996 0 1 0 1.41-1.41zM1.39 2.81a.996.996 0 0 0 0 1.41l1.16 1.16l-.5.5a.996.996 0 1 0 1.41 1.41l.5-.5l.83.83a8.948 8.948 0 0 0-1.67 6.89c.61 3.74 3.63 6.75 7.37 7.37c2.6.43 5.01-.27 6.88-1.67l2.4 2.4a.996.996 0 1 0 1.41-1.41L2.81 2.81c-.39-.39-1.03-.39-1.42 0z"/></svg>