<svg xmlns="http://www.w3.org/2000/svg" width="24" height="24" viewBox="0 0 24 24"><path d="M10.53 7.43c.42-.31.93-.47 1.54-.47s1.11.16 1.5.49c.17.14.32.3.44.46c.27.37.77.48 1.19.3c.61-.26.84-1.03.43-1.55c-.22-.28-.48-.55-.79-.81c-.5-.4-1.12-.65-1.85-.77V4c0-.55-.45-1-1-1s-1 .45-1 1v1.11c-.41.08-.79.21-1.14.39c-.35.18-.64.39-.9.63l1.43 1.43c.05-.04.1-.09.15-.13zM2.1 3.51a.996.996 0 0 0 0 1.41l11.64 11.64c-.43.29-.95.44-1.55.44c-.71 0-1.32-.23-1.83-.7a3.64 3.64 0 0 1-.71-.93c-.25-.47-.8-.7-1.3-.5l-.09.04c-.54.22-.81.86-.55 1.38c.35.7.83 1.28 1.44 1.73c.57.42 1.19.68 1.85.83V20c0 .55.45 1 1 1s1-.45 1-1v-1.08c.44-.07.87-.17 1.29-.35c.34-.14.64-.32.92-.53l3.86 3.86a.996.996 0 1 0 1.41-1.41L3.51 3.51a.996.996 0 0 0-1.41 0z"/></svg>