<svg xmlns="http://www.w3.org/2000/svg" width="24" height="24" viewBox="0 0 24 24"><path d="M14.58 12.36l1.38 1.38a.5.5 0 0 0 .84-.24c.12-.48.18-.99.18-1.5a6 6 0 0 0-.18-1.48a.5.5 0 0 0-.84-.24l-1.39 1.38a.51.51 0 0 0 .01.7zm4.14-4.85l-.05.05a.84.84 0 0 0-.16.94c.47 1.07.73 2.25.73 3.49c0 1.24-.26 2.42-.73 3.49a.84.84 0 0 0 .16.94a.84.84 0 0 0 1.35-.23c.63-1.3.98-2.76.98-4.3c-.01-1.48-.34-2.89-.93-4.16c-.24-.51-.94-.63-1.35-.22zM15 7l-4.79-4.79a.705.705 0 0 0-.5-.21c-.39 0-.71.32-.71.71v6.88L5.12 5.7a.996.996 0 1 0-1.41 1.41L8.59 12L3.7 16.89a.996.996 0 1 0 1.41 1.41L9 14.41v6.88c0 .39.32.71.71.71c.19 0 .37-.07.5-.21L15 17c.39-.39.39-1.02 0-1.42L11.41 12L15 8.42c.39-.39.39-1.03 0-1.42zm-4-1.17l1.88 1.88L11 9.59V5.83zm1.88 10.46L11 18.17v-3.76l1.88 1.88z"/></svg>