<svg xmlns="http://www.w3.org/2000/svg" width="24" height="24" viewBox="0 0 24 24"><path d="M17.8 2.8C16 2.09 13.86 2 12 2s-4 .09-5.8.8C3.53 3.84 2 6.05 2 8.86V20c0 1.1.9 2 2 2h16c1.1 0 2-.9 2-2V8.86c0-2.81-1.53-5.02-4.2-6.06zm.2 12.7c0 1.5-1.11 2.73-2.55 2.95l.26.26a.75.75 0 1 1-1.06 1.06l-1.28-1.28h-2.75l-1.28 1.28a.72.72 0 0 1-.53.23c-.67 0-1-.81-.53-1.28l.26-.26C7.11 18.23 6 17 6 15.5V9c0-2.62 3-3 6-3c3.32 0 6 .38 6 3v6.5z"/><circle cx="8.5" cy="15.5" r="1"/><path d="M7.5 9h9v4h-9z"/><circle cx="15.5" cy="15.5" r="1"/></svg>