<svg xmlns="http://www.w3.org/2000/svg" width="24" height="24" viewBox="0 0 24 24"><circle cx="12" cy="12" r="3"/><path d="M5.54 8.46l-2.83 2.83a.996.996 0 0 0 0 1.41l2.83 2.83c.39.39 1.02.39 1.41 0c.39-.39.39-1.03 0-1.42L4.83 12l2.12-2.12c.39-.39.39-1.03 0-1.42c-.39-.39-1.03-.38-1.41 0zm2.92-1.51c.39.39 1.03.39 1.42 0L12 4.83l2.12 2.12c.39.39 1.03.39 1.42 0a.996.996 0 0 0 0-1.41l-2.83-2.83a.996.996 0 0 0-1.41 0L8.46 5.54c-.38.38-.39 1.02 0 1.41zm8.59 1.51c-.39.39-.39 1.03 0 1.42L19.17 12l-2.12 2.12c-.39.39-.39 1.03 0 1.42c.39.39 1.02.39 1.41 0l2.83-2.83a.996.996 0 0 0 0-1.41l-2.83-2.83a.996.996 0 0 0-1.41-.01zM12 19.17l-2.12-2.12c-.39-.39-1.03-.39-1.42 0a.996.996 0 0 0 0 1.41l2.83 2.83c.39.39 1.02.39 1.41 0l2.83-2.83a.996.996 0 0 0 0-1.41c-.39-.39-1.03-.39-1.42 0L12 19.17z"/></svg>