<svg xmlns="http://www.w3.org/2000/svg" width="24" height="24" viewBox="0 0 24 24"><path d="M19.96 10.59a.514.514 0 0 0-.5-.59H17V8.86a4.01 4.01 0 0 0 2.96-3.27a.514.514 0 0 0-.5-.59H17c0-1.1-.9-2-2-2H9c-1.1 0-2 .9-2 2H4.54c-.31 0-.54.28-.5.59A4.01 4.01 0 0 0 7 8.86V10H4.54c-.31 0-.54.28-.5.59A4.01 4.01 0 0 0 7 13.86V15H4.54c-.31 0-.54.28-.5.59A4.01 4.01 0 0 0 7 18.86V19c0 1.1.9 2 2 2h6c1.1 0 2-.9 2-2v-.14a4.01 4.01 0 0 0 2.96-3.27a.514.514 0 0 0-.5-.59H17v-1.14a4.01 4.01 0 0 0 2.96-3.27zM12 15c.83 0 1.5.67 1.5 1.5S12.83 18 12 18s-1.5-.67-1.5-1.5s.67-1.5 1.5-1.5zm-1.5-3c0-.83.67-1.5 1.5-1.5s1.5.67 1.5 1.5s-.67 1.5-1.5 1.5s-1.5-.67-1.5-1.5zM12 9c-.83 0-1.5-.67-1.5-1.5S11.17 6 12 6s1.5.67 1.5 1.5S12.83 9 12 9z"/></svg>