<svg xmlns="http://www.w3.org/2000/svg" width="24" height="24" viewBox="0 0 24 24"><path d="M13 9c0-2.21-1.79-4-4-4c-.36 0-.69.06-1.02.15l4.87 4.87c.09-.33.15-.66.15-1.02zm2.69 2.55l.13.13c.55.55 1.48.43 1.85-.25c.82-1.49.81-3.26-.02-4.82a1.17 1.17 0 0 0-1.86-.27l-.1.1c-.34.34-.42.85-.23 1.29c.34.82.34 1.72 0 2.54c-.19.44-.11.94.23 1.28zm5.24-8.54c-.42-.56-1.26-.61-1.75-.11c-.4.4-.46 1.02-.13 1.48c1.97 2.74 1.96 6.41-.03 9.25c-.32.45-.25 1.07.14 1.46l.03.03c.49.49 1.32.45 1.74-.1c2.76-3.53 2.76-8.37 0-12.01zm-17.42.5A.996.996 0 1 0 2.1 4.92l3.05 3.05C5.06 8.31 5 8.64 5 9c0 2.21 1.79 4 4 4c.36 0 .69-.06 1.02-.15l1.36 1.36C10.63 14.08 9.84 14 9 14c-2.53 0-4.71.7-6.39 1.56A2.97 2.97 0 0 0 1 18.22V20c0 .55.45 1 1 1h14c.55 0 1-.45 1-1v-.17l2.07 2.07a.996.996 0 1 0 1.41-1.41L3.51 3.51z"/></svg>