<svg xmlns="http://www.w3.org/2000/svg" width="24" height="24" viewBox="0 0 24 24"><path d="M15.5 5.5c1.1 0 2-.9 2-2s-.9-2-2-2s-2 .9-2 2s.9 2 2 2zM5 12c-2.8 0-5 2.2-5 5s2.2 5 5 5s5-2.2 5-5s-2.2-5-5-5zm0 8.5c-1.9 0-3.5-1.6-3.5-3.5s1.6-3.5 3.5-3.5s3.5 1.6 3.5 3.5s-1.6 3.5-3.5 3.5zm5.8-10l2.4-2.4l.8.8c1.05 1.05 2.31 1.78 3.86 2.02c.6.09 1.14-.39 1.14-1c0-.49-.36-.9-.85-.98c-1.08-.18-1.93-.71-2.65-1.43l-1.9-1.9C13.1 5.2 12.6 5 12 5s-1.1.2-1.4.6L7.8 8.4c-.4.4-.6.9-.6 1.4c0 .6.2 1.1.6 1.4L11 14v4c0 .55.45 1 1 1s1-.45 1-1v-4.4c0-.52-.2-1.01-.55-1.38L10.8 10.5zM19 12c-2.8 0-5 2.2-5 5s2.2 5 5 5s5-2.2 5-5s-2.2-5-5-5zm0 8.5c-1.9 0-3.5-1.6-3.5-3.5s1.6-3.5 3.5-3.5s3.5 1.6 3.5 3.5s-1.6 3.5-3.5 3.5z"/></svg>