<svg xmlns="http://www.w3.org/2000/svg" width="24" height="24" viewBox="0 0 24 24"><circle cx="13" cy="10" r="1.5"/><path d="M13.21 3c-3.84-.11-7 2.87-7.19 6.64L4.1 12.2a.5.5 0 0 0 .4.8H6v3c0 1.1.9 2 2 2h1v2c0 .55.45 1 1 1h5c.55 0 1-.45 1-1v-3.68a7.004 7.004 0 0 0 4-6.58c-.14-3.62-3.18-6.63-6.79-6.74zM16 10c0 .13-.02.25-.04.38l.65.49c.2.15.26.43.13.65l-.56.97c-.13.22-.4.31-.63.21l-.75-.32c-.2.15-.42.29-.66.39l-.1.79c-.03.25-.24.44-.5.44h-1.12c-.25 0-.46-.19-.5-.44l-.1-.79c-.24-.1-.45-.24-.66-.39l-.75.32c-.23.1-.5.01-.63-.21l-.56-.97c-.13-.22-.07-.5.13-.65l.65-.49c.02-.13 0-.25 0-.38s.02-.25.04-.38l-.66-.49a.509.509 0 0 1-.13-.65l.56-.97c.13-.22.4-.31.63-.21l.75.32c.2-.15.42-.29.66-.39l.1-.79c.02-.25.23-.44.49-.44h1.12c.25 0 .46.19.5.44l.1.79c.24.1.45.24.66.39l.75-.32c.23-.1.5-.01.63.21l.56.97c.13.22.07.5-.13.65l-.65.49c-.01.13.02.25.02.38z"/></svg>