<svg xmlns="http://www.w3.org/2000/svg" width="24" height="24" viewBox="0 0 24 24"><path d="M10.98 3.23c0-.64-.59-1.13-1.21-.98c-1.12.26-2.17.7-3.12 1.3c-.54.34-.61 1.1-.16 1.55c.32.32.82.4 1.21.15a7.84 7.84 0 0 1 2.53-1.05c.45-.1.75-.51.75-.97zM5.07 6.51c-.45-.45-1.21-.38-1.55.16c-.6.94-1.04 1.99-1.3 3.12c-.14.62.35 1.21.99 1.21c.45 0 .87-.3.97-.74c.2-.91.57-1.77 1.05-2.53c.24-.39.16-.9-.16-1.22zM3.21 13c-.64 0-1.13.59-.98 1.21c.26 1.12.7 2.17 1.3 3.11c.34.54 1.1.61 1.55.16c.32-.32.4-.83.15-1.21c-.49-.76-.85-1.61-1.05-2.53a.997.997 0 0 0-.97-.74zm9.81-9.76c0 .46.31.87.75.97c3.55.82 6.2 4.01 6.2 7.79s-2.65 6.97-6.2 7.79c-.44.1-.75.51-.75.96c0 .64.6 1.13 1.22.98c4.43-1.03 7.73-5.01 7.73-9.74s-3.3-8.71-7.73-9.74c-.62-.14-1.22.35-1.22.99zM6.64 20.45c.94.6 2 1.04 3.12 1.3c.62.14 1.21-.35 1.21-.98c0-.45-.3-.87-.74-.97a7.97 7.97 0 0 1-2.53-1.05c-.39-.25-.89-.17-1.21.16c-.45.45-.38 1.2.15 1.54z"/><path d="M11.04 15.51l4.15-2.67a1 1 0 0 0 0-1.68l-4.15-2.67c-.66-.43-1.54.05-1.54.84v5.34c0 .79.88 1.27 1.54.84z"/></svg>