<svg width="24" height="24" xmlns="http://www.w3.org/2000/svg" viewBox="0 0 24 24"><circle cx="4.5" cy="9.5" r="2.5"/><circle cx="9" cy="5.5" r="2.5"/><circle cx="15" cy="5.5" r="2.5"/><circle cx="19.5" cy="9.5" r="2.5"/><path d="M12.228 12.501a12.675 12.675 0 0 0-.529.003.893.893 0 0 0-.131.014l-.04.014c-.217.074-.52.316-.876.726-.312.365-.61.717-1.192 1.403l-.042.049c-.496.584-.862 1.013-1.254 1.466l-.1.108-.542.54c-1.155 1.16-1.56 1.805-1.526 2.422.155.433.42.696.762.774-.067-.016.086-.02.342-.047.167-.018.36-.041.646-.078l.817-.107c1.296-.164 2.293-.248 3.337-.248h.18c1.049 0 2.051.083 3.35.247 1.594.2 1.827.225 1.76.24.367-.082.639-.352.796-.789.038-.622-.365-1.266-1.521-2.427l-.54-.537-.107-.116c-.315-.37-.617-.725-1.197-1.41l-.042-.048c-.49-.577-.85-1-1.241-1.453-.341-.4-.651-.647-.909-.736a2.585 2.585 0 0 0-.2-.01zm7.722 7.159c-.29 1.01-1.02 2.03-2.33 2.32-.73.14-3.06-.44-5.54-.44h-.18c-2.48 0-4.81.59-5.54.44-1.31-.29-2.04-1.3-2.33-2.32-.3-2.03 1.31-3.48 2.62-4.79.88-1.02 1.61-1.89 2.48-2.91.47-.54 1.05-1.08 1.75-1.32.11-.04.22-.07.33-.09.26-.05.53-.05.79-.05s.53 0 .78.04c.11.02.22.05.33.09.7.24 1.29.78 1.75 1.32.88 1.02 1.61 1.89 2.48 2.91 1.31 1.31 2.92 2.76 2.61 4.8z"/></svg>