<svg xmlns="http://www.w3.org/2000/svg" width="24" height="24" viewBox="0 0 24 24"><path d="M12.88 5.05c3.18.4 5.67 2.89 6.07 6.07c.06.51.49.88.99.88c.04 0 .08 0 .12-.01c.55-.07.94-.57.87-1.12a8.981 8.981 0 0 0-7.81-7.81c-.55-.06-1.05.33-1.11.88c-.07.55.32 1.05.87 1.11zm.38 2.11a1 1 0 0 0-1.22.72c-.14.54.18 1.08.72 1.22a3 3 0 0 1 2.15 2.15a1.003 1.003 0 0 0 1.22.72c.53-.14.85-.69.72-1.22a5.018 5.018 0 0 0-3.59-3.59z"/><path d="M15.63 14.4l-2.52 2.5c-2.5-1.43-4.57-3.5-6-6l2.5-2.52c.23-.24.33-.57.27-.9L9.13 3.8c-.09-.46-.5-.8-.98-.8H4c-.56 0-1.03.47-1 1.03c.17 2.89 1.05 5.6 2.43 7.97c1.58 2.73 3.85 4.99 6.57 6.57c2.37 1.37 5.08 2.26 7.97 2.43c.56.03 1.03-.44 1.03-1v-4.15c0-.48-.34-.89-.8-.98l-3.67-.73a.985.985 0 0 0-.9.26z"/></svg>