<svg xmlns="http://www.w3.org/2000/svg" width="24" height="24" viewBox="0 0 24 24"><path d="M11.25 7.05c-2.62.32-4.78 2.41-5.18 5.02c-.24 1.55.13 3 .89 4.17c.35.54 1.11.63 1.56.18l.01-.01c.34-.34.37-.87.11-1.27c-.57-.88-.8-1.99-.49-3.18c.35-1.37 1.47-2.47 2.84-2.82A3.988 3.988 0 0 1 16 13c0 .8-.24 1.53-.65 2.15c-.27.41-.25.95.1 1.3l.01.01c.43.43 1.16.4 1.51-.11C17.61 15.4 18 14.24 18 13a6 6 0 0 0-6.75-5.95z"/><path d="M5.66 19.27c.35-.35.4-.92.09-1.31a7.905 7.905 0 0 1-1.64-6.22c.54-3.5 3.46-6.29 6.98-6.68C15.91 4.51 20 8.28 20 13c0 1.9-.67 3.62-1.77 4.99c-.32.39-.28.96.08 1.32a1 1 0 0 0 1.49-.08A9.927 9.927 0 0 0 22 13c0-5.91-5.13-10.62-11.17-9.93c-4.62.52-8.35 4.33-8.78 8.96c-.26 2.72.59 5.23 2.12 7.16a1 1 0 0 0 1.49.08z"/><circle cx="12" cy="13" r="2"/></svg>