<svg xmlns="http://www.w3.org/2000/svg" width="24" height="24" viewBox="0 0 24 24"><path d="M3 6c-.55 0-1 .45-1 1v13c0 1.1.9 2 2 2h13c.55 0 1-.45 1-1s-.45-1-1-1H4V7c0-.55-.45-1-1-1zm8 2h1v1h-1z"/><path d="M20 2H8c-1.1 0-2 .9-2 2v12c0 1.1.9 2 2 2h12c1.1 0 2-.9 2-2V4c0-1.1-.9-2-2-2zm-6 10a2 2 0 0 1-2 2h-1c-.55 0-1-.45-1-1s.45-1 1-1h1v-1h-1a2 2 0 0 1-2-2V8a2 2 0 0 1 2-2h1a2 2 0 0 1 2 2v4zm5.5-1h-1v1c0 .55-.45 1-1 1s-1-.45-1-1v-1h-1c-.55 0-1-.45-1-1s.45-1 1-1h1V8c0-.55.45-1 1-1s1 .45 1 1v1h1c.55 0 1 .45 1 1s-.45 1-1 1z"/></svg>