<svg xmlns="http://www.w3.org/2000/svg" width="24" height="24" viewBox="0 0 24 24"><path d="M17 1H7c-1.1 0-2 .9-2 2v18c0 1.1.9 2 2 2h10c1.1 0 2-.9 2-2V3c0-1.1-.9-2-2-2zm0 17H7V6h10v12z"/><path d="M12.01 14.91c-.58 0-1.05.45-1.05 1.04c0 .59.46 1.05 1.05 1.05c.6 0 1.04-.47 1.04-1.05c-.01-.59-.46-1.04-1.04-1.04zM9.86 9.38c.32.13.7.04.89-.25c.25-.38.64-.7 1.26-.7c1.35 0 1.62 1.26 1.14 1.94c-.45.64-1.23 1.08-1.63 1.8c-.15.27-.22.56-.25.84c-.04.44.31.82.75.82h.03c.39 0 .7-.3.75-.68c.03-.24.08-.35.16-.49c.32-.6.93-.88 1.56-1.81c.57-.84.35-1.97-.01-2.57C14.07 7.56 13.22 7 11.99 7c-1.12 0-1.97.55-2.48 1.31c-.25.37-.07.89.35 1.07z"/></svg>