<svg xmlns="http://www.w3.org/2000/svg" width="24" height="24" viewBox="0 0 24 24"><path d="M13.41 15.54l4.4 4.4c.59.59 1.54.59 2.12 0c.59-.59.59-1.54 0-2.12l-4.4-4.4l-2.12 2.12zm2.93-5.75c.88.31 1.89.36 3.03-.39c.79-.52 1.4-1.32 1.57-2.25c.14-.75.03-1.45-.25-2.07L18.27 7.5L16.5 5.73l2.43-2.43c-.62-.28-1.33-.39-2.08-.25c-.93.18-1.73.79-2.25 1.58c-.74 1.14-.69 2.14-.38 3.02L12 9.88l-1.69-1.69c.38-.38.38-1 0-1.38l-.56-.56l2.32-2.32A3.18 3.18 0 0 0 9.82 3c-.82 0-1.63.31-2.25.93L4.71 6.79a.996.996 0 0 0 0 1.41l.54.54H3.5c-.19 0-.37.07-.5.21a.7.7 0 0 0 0 1l2 2a.7.7 0 0 0 1 0c.13-.13.21-.31.21-.5V9.71l.04.04l.56.56c.38.38 1 .38 1.38 0L9.88 12l-5.82 5.82a1.49 1.49 0 0 0 0 2.12c.59.59 1.54.59 2.12 0l5.38-5.38l4.78-4.77z"/></svg>