<svg xmlns="http://www.w3.org/2000/svg" width="24" height="24" viewBox="0 0 24 24"><path d="M18.02 9.5c.33.56.59 1.18.76 1.82c.11.43.51.73.96.73h.01c.65 0 1.14-.61.98-1.23c-.21-.84-.54-1.63-.98-2.35c-.33-.55-1.11-.63-1.56-.18l-.02.01c-.32.32-.38.81-.15 1.2zm-1.26 9.74a1 1 0 0 0-1.21-.16c-.56.33-1.17.59-1.82.76c-.43.11-.73.5-.73.95v.01c0 .65.61 1.14 1.23.98c.84-.21 1.63-.55 2.35-.98c.56-.33.64-1.11.18-1.56zm2.01-4.45c-.17.65-.42 1.26-.76 1.82c-.23.39-.16.88.16 1.2l.01.01c.46.46 1.23.38 1.56-.18c.43-.72.76-1.51.98-2.35c.16-.63-.33-1.23-.98-1.23h-.01c-.45 0-.84.3-.96.73zM4.73 18.3a8.984 8.984 0 0 0 5.05 3.41c.62.16 1.22-.34 1.22-.98c0-.45-.3-.85-.73-.96a6.86 6.86 0 0 1-3.98-2.72c-1.68-2.35-1.72-5.6-.09-7.98C7.61 7.01 9.8 6.02 12 6.02v1.77c0 .45.54.67.85.35l2.79-2.79c.2-.2.2-.51 0-.71l-2.79-2.79a.5.5 0 0 0-.85.36v1.81c-2.76 0-5.51 1.24-7.33 3.76c-2.25 3.11-2.22 7.43.06 10.52z"/></svg>