<svg xmlns="http://www.w3.org/2000/svg" width="24" height="24" viewBox="0 0 24 24"><path d="M12.59 9.76a3.996 3.996 0 0 0-5.35-5.35l5.35 5.35zM20 9V7c0-.55-.45-1-1-1s-1 .45-1 1v2h-2c-.55 0-1 .45-1 1s.45 1 1 1h2v2c0 .55.45 1 1 1s1-.45 1-1v-2h2c.55 0 1-.45 1-1s-.45-1-1-1h-2zM2.1 3.51a.996.996 0 0 0 0 1.41l2.92 2.92C5.01 7.9 5 7.95 5 8c0 2.21 1.79 4 4 4c.05 0 .1-.01.16-.02l1.08 1.08C9.83 13.03 9.42 13 9 13c-2.53 0-4.71.7-6.39 1.56A2.97 2.97 0 0 0 1 17.22V20h16.17l1.9 1.9a.996.996 0 1 0 1.41-1.41L3.51 3.51a.996.996 0 0 0-1.41 0z"/></svg>