<svg xmlns="http://www.w3.org/2000/svg" width="24" height="24" viewBox="0 0 24 24"><path d="M12 4V2.21c0-.45-.54-.67-.85-.35l-2.8 2.79c-.2.2-.2.51 0 .71l2.79 2.79c.32.31.86.09.86-.36V6c3.89 0 7.06 3.2 7 7.1c-.05 3.71-3.18 6.84-6.9 6.9a7.008 7.008 0 0 1-7.05-6.14a.984.984 0 0 0-.98-.86c-.6 0-1.07.53-1 1.12a9 9 0 0 0 9.19 7.87c4.7-.13 8.61-4.05 8.74-8.74C21.14 8.17 17.06 4 12 4z"/><path d="M10.25 14.5c-.41 0-.75.34-.75.75s.34.75.75.75H13c.55 0 1-.45 1-1v-1.5c0-.55-.45-1-1-1h-2v-1h2.25c.41 0 .75-.34.75-.75s-.34-.75-.75-.75H10.5c-.55 0-1 .45-1 1v1.5c0 .55.45 1 1 1h2v1h-2.25z"/></svg>