<svg xmlns="http://www.w3.org/2000/svg" width="24" height="24" viewBox="0 0 24 24"><path d="M18 13c-.55 0-1 .45-1 1v3H7v-1.79c0-.45-.54-.67-.85-.35l-2.79 2.79c-.2.2-.2.51 0 .71l2.79 2.79a.5.5 0 0 0 .85-.36V19h11c.55 0 1-.45 1-1v-4c0-.55-.45-1-1-1zm2.64-7.36l-2.79-2.79a.5.5 0 0 0-.85.36V5H6c-.55 0-1 .45-1 1v4c0 .55.45 1 1 1s1-.45 1-1V7h10v1.79c0 .45.54.67.85.35l2.79-2.79c.2-.2.2-.51 0-.71zM12.25 15c.41 0 .75-.34.75-.75v-4.5c0-.41-.34-.75-.75-.75h-1.5c-.41 0-.75.34-.75.75s.34.75.75.75h.75v3.75c0 .41.34.75.75.75z"/></svg>