<svg xmlns="http://www.w3.org/2000/svg" width="24" height="24" viewBox="0 0 24 24"><path d="M5.83 8.3c-.47-.47-1.24-.39-1.57.16c-.43.73-.76 1.52-.98 2.36c-.16.63.33 1.23.98 1.23h.01c.45 0 .85-.3.96-.73c.17-.64.42-1.26.76-1.82a1 1 0 0 0-.16-1.2zm1.59 12.5c.72.43 1.51.76 2.35.98c.62.16 1.23-.34 1.23-.98v-.01c0-.45-.3-.85-.73-.96c-.65-.17-1.26-.42-1.82-.76a.985.985 0 0 0-1.2.16l-.01.01c-.45.45-.38 1.23.18 1.56zm-3.15-6.74c-.65 0-1.14.61-.98 1.23c.21.84.55 1.63.98 2.35c.33.55 1.1.63 1.56.18l.01-.01c.32-.32.39-.81.16-1.2c-.33-.56-.59-1.17-.76-1.82c-.13-.43-.52-.73-.97-.73zm15.06-6.28A8.947 8.947 0 0 0 12 4.01v-1.8c0-.45-.54-.67-.85-.35l-2.8 2.79c-.2.2-.2.51 0 .71l2.79 2.79c.32.31.86.09.86-.36V6.03c2.19 0 4.39.99 5.8 3.05c1.63 2.38 1.59 5.63-.09 7.98a6.952 6.952 0 0 1-3.98 2.72c-.43.09-.73.5-.73.94c0 .64.6 1.14 1.23.98c1.93-.48 3.72-1.61 5.05-3.41c2.27-3.08 2.3-7.4.05-10.51z"/></svg>