<svg xmlns="http://www.w3.org/2000/svg" width="24" height="24" viewBox="0 0 24 24"><path d="M13.25 10.5a1.25 1.25 0 1 1 2.5 0a1.25 1.25 0 0 1-2.5 0zM9.5 11.75a1.25 1.25 0 1 0 0-2.5a1.25 1.25 0 0 0 0 2.5zM12 17c2.01 0 3.74-1.23 4.5-3h-9c.76 1.77 2.49 3 4.5 3zm9-5a9 9 0 1 1-9-9c.09 0 .18.01.27.01c.04 0 .09-.01.13-.01v.02C17.19 3.23 21 7.17 21 12zm-8.6-3.5c-1.52 0-2.75-1.23-2.75-2.75c0-.12.02-.23.04-.35C6.96 6.36 5 8.95 5 12c0 3.86 3.14 7 7 7s7-3.14 7-7s-3.14-7-7-7c-.2 0-.4.01-.59.03c-.15.21-.26.45-.26.72c0 .69.56 1.25 1.25 1.25c.17 0 .34-.03.48-.1a.7.7 0 0 1 .79.13c.38.38.28 1.04-.21 1.25c-.32.14-.68.22-1.06.22z"/></svg>